<svg width="70" height="70" viewBox="0 0 70 70" fill="none" xmlns="http://www.w3.org/2000/svg">
<path d="M35 68.9062C53.7259 68.9062 68.9062 53.7259 68.9062 35C68.9062 16.2741 53.7259 1.09375 35 1.09375C16.2741 1.09375 1.09375 16.2741 1.09375 35C1.09375 53.7259 16.2741 68.9062 35 68.9062Z" fill="#FF5876"/>
<path d="M35 66.4453C16.6863 66.4453 1.76627 51.9251 1.11836 33.7695C1.10373 34.178 1.09375 34.5879 1.09375 35C1.09375 53.726 16.274 68.9062 35 68.9062C53.726 68.9062 68.9062 53.726 68.9062 35C68.9062 34.5879 68.8963 34.178 68.8816 33.7695C68.2337 51.9251 53.3138 66.4453 35 66.4453Z" fill="#E6485D"/>
<path d="M35 63.2929C50.6257 63.2929 63.2929 50.6257 63.2929 35C63.2929 19.3743 50.6257 6.70715 35 6.70715C19.3743 6.70715 6.70715 19.3743 6.70715 35C6.70715 50.6257 19.3743 63.2929 35 63.2929Z" fill="#E4EEF9"/>
<path d="M35 60.8319C19.7868 60.8319 7.37982 48.8242 6.73533 33.7695C6.71783 34.1776 6.70703 34.5875 6.70703 35C6.70703 50.6257 19.3742 63.2929 34.9999 63.2929C50.6256 63.2929 63.2929 50.6257 63.2929 35C63.2929 34.5875 63.2821 34.1776 63.2646 33.7695C62.6202 48.8242 50.2133 60.8319 35 60.8319Z" fill="#D5E0F2"/>
<path d="M45.2772 25.0733C44.4707 24.2778 43.1723 24.2869 42.377 25.0932L35.9363 31.623C37.3748 32.021 38.4415 33.3128 38.5011 34.8634L45.297 27.9735C46.0924 27.1671 46.0836 25.8686 45.2772 25.0733Z" fill="#405B6C"/>
<path d="M31.4955 35C31.4955 33.477 32.4674 32.1813 33.8246 31.6981L21.1833 20.4329C20.3376 19.6793 19.0414 19.7539 18.2879 20.5996C17.5345 21.4452 17.609 22.7415 18.4546 23.495L31.4985 35.1189C31.4971 35.0794 31.4955 35.0399 31.4955 35Z" fill="#405B6C"/>
<path d="M35 38.5045C36.9355 38.5045 38.5045 36.9355 38.5045 35C38.5045 33.0645 36.9355 31.4955 35 31.4955C33.0645 31.4955 31.4955 33.0645 31.4955 35C31.4955 36.9355 33.0645 38.5045 35 38.5045Z" fill="#FF5876"/>
<path d="M29.5834 33.4123L31.4985 35.1189C31.4972 35.0793 31.4955 35.0399 31.4955 35C31.4955 33.477 32.4675 32.1813 33.8247 31.6981L32.0972 30.1587C30.8952 30.8809 29.9855 32.0381 29.5834 33.4123Z" fill="#2D4456"/>
<path d="M37.5646 29.972L35.9363 31.6229C37.3748 32.0209 38.4415 33.3126 38.5011 34.8633L40.296 33.0436C39.803 31.7092 38.8193 30.6134 37.5646 29.972Z" fill="#2D4456"/>
<path d="M35 36.0437C33.4976 36.0437 32.2164 35.098 31.7181 33.7695C31.5744 34.1525 31.4954 34.5669 31.4954 35C31.4954 36.9355 33.0645 38.5047 34.9999 38.5047C36.9354 38.5047 38.5045 36.9355 38.5045 35C38.5045 34.5669 38.4255 34.1525 38.2818 33.7695C37.7836 35.0979 36.5024 36.0437 35 36.0437Z" fill="#E6485D"/>
<path d="M59.7488 10.2512C53.1381 3.64068 44.349 0 35 0C25.651 0 16.8619 3.64068 10.2512 10.2512C3.64055 16.8619 0 25.6512 0 35C0 43.9775 3.39445 52.5135 9.55787 59.0354C9.94766 59.4479 10.598 59.4661 11.0102 59.0764C11.4227 58.6867 11.441 58.0364 11.0513 57.6241C5.24973 51.4851 2.05475 43.4504 2.05475 35C2.05475 26.2 5.4816 17.9267 11.7041 11.7042C17.9267 5.4816 26.2 2.05475 35 2.05475C43.8 2.05475 52.0733 5.4816 58.2958 11.7042C64.5183 17.9267 67.9451 26.2 67.9451 35C67.9451 43.8 64.5181 52.0733 58.2958 58.2958C52.0733 64.5184 43.8 67.9453 35 67.9453C27.3286 67.9453 19.8591 65.2511 13.9675 60.3591C13.5309 59.9967 12.8833 60.0567 12.5207 60.4933C12.1583 60.9298 12.2184 61.5776 12.6548 61.94C18.9145 67.1375 26.8501 70 35 70C44.349 70 53.1381 66.3593 59.7488 59.7488C66.3595 53.1381 70 44.3488 70 35C70 25.6512 66.3595 16.8619 59.7488 10.2512Z" fill="black"/>
<path d="M55.0943 14.9778C55.4816 14.5631 55.4593 13.9129 55.0447 13.5257C49.5884 8.43035 42.4697 5.62434 35.0001 5.62434C27.1536 5.62434 19.7767 8.67986 14.2284 14.2283C8.68005 19.7768 5.62439 27.1534 5.62439 35C5.62439 42.8466 8.67992 50.2234 14.2284 55.7718C19.7768 61.3203 27.1536 64.3757 35.0001 64.3757C42.8465 64.3757 50.2234 61.3201 55.7719 55.7718C61.3203 50.2235 64.3757 42.8466 64.3757 35C64.3757 28.2558 62.1528 21.9133 57.9472 16.6584C57.5926 16.2153 56.946 16.1435 56.503 16.4981C56.0601 16.8526 55.9884 17.4992 56.3429 17.9421C60.2538 22.8289 62.3208 28.7273 62.3208 35C62.3208 50.0648 50.0647 62.3209 34.9999 62.3209C19.9352 62.3209 7.67914 50.0648 7.67914 35C7.67914 19.9352 19.9353 7.67908 35.0001 7.67908C41.9471 7.67908 48.5677 10.2888 53.6422 15.0274C54.0571 15.415 54.7074 15.3925 55.0943 14.9778Z" fill="black"/>
<path d="M36.0274 13.4872V10.3048C36.0274 9.73739 35.5675 9.27733 35 9.27733C34.4325 9.27733 33.9725 9.73739 33.9725 10.3048V13.487C33.9725 14.0544 34.4325 14.5145 35 14.5145C35.5675 14.5145 36.0274 14.0546 36.0274 13.4872Z" fill="black"/>
<path d="M33.9725 56.5128V59.6951C33.9725 60.2625 34.4325 60.7225 35 60.7225C35.5675 60.7225 36.0274 60.2625 36.0274 59.6951V56.5128C36.0274 55.9455 35.5675 55.4854 35 55.4854C34.4325 55.4854 33.9725 55.9455 33.9725 56.5128Z" fill="black"/>
<path d="M59.6951 36.0274C60.2626 36.0274 60.7225 35.5674 60.7225 35C60.7225 34.4326 60.2626 33.9726 59.6951 33.9726H56.5128C55.9453 33.9726 55.4854 34.4325 55.4854 35C55.4854 35.5675 55.9453 36.0274 56.5128 36.0274H59.6951Z" fill="black"/>
<path d="M10.3049 33.9726C9.73739 33.9726 9.27747 34.4325 9.27747 35C9.27747 35.5675 9.73739 36.0274 10.3049 36.0274H13.4872C14.0547 36.0274 14.5146 35.5674 14.5146 35C14.5146 34.4326 14.0547 33.9726 13.4872 33.9726H10.3049Z" fill="black"/>
<path d="M48.889 48.0082C49.3212 48.3718 49.9702 48.3185 50.3366 47.8823C50.7015 47.4478 50.645 46.7998 50.2107 46.4349L39.0446 37.0556C39.318 36.5198 39.4882 35.9231 39.5284 35.2913L46.0485 28.681C47.2362 27.5256 47.2223 25.4611 46.0186 24.3221C44.8658 23.1308 42.7984 23.1496 41.6597 24.3521L35.5945 30.5013C35.1015 30.4336 34.5711 30.4527 34.0888 30.5529L21.8396 19.6372C20.6246 18.509 18.5648 18.6281 17.4877 19.8878C16.3572 21.1565 16.4696 23.1087 17.7383 24.2394L23.666 29.5217C24.0899 29.8993 24.7389 29.8618 25.1167 29.4383C25.4942 29.0147 25.4568 28.3652 25.0332 27.9877L19.1058 22.7056C18.6828 22.3286 18.6453 21.6779 19.0222 21.255C19.381 20.835 20.0685 20.7956 20.4728 21.1714L32.0879 31.5221C31.5581 31.9665 31.1314 32.5295 30.8481 33.1696L28.1009 30.7215C27.6774 30.3439 27.0278 30.3814 26.6503 30.8051C26.2728 31.2286 26.3103 31.8782 26.7339 32.2556L30.504 35.6152C30.8053 37.8278 32.706 39.5388 35 39.5388C36.0209 39.5388 36.9638 39.1999 37.7229 38.6289L48.889 48.0082ZM43.1229 25.7951C43.5025 25.394 44.1905 25.3894 44.5758 25.7853C44.9772 26.165 44.9817 26.8531 44.5856 27.2382L39.0148 32.8862C38.6887 32.2696 38.2249 31.7368 37.6645 31.329L43.1229 25.7951ZM35 37.484C33.6302 37.484 32.516 36.3696 32.516 35C32.516 33.6304 33.6304 32.516 35 32.516C36.3698 32.516 37.4841 33.6304 37.4841 35C37.4841 36.3696 36.3698 37.484 35 37.484Z" fill="black"/>
</svg>
