<svg id="Repair_Service" height="512" viewBox="0 0 64 64" width="512" xmlns="http://www.w3.org/2000/svg" data-name="Repair Service"><rect fill="#57565c" height="58" rx="2" width="40" x="12" y="3"/><g fill="#c4d5f2"><rect height="8" rx="2" width="32" x="16" y="7"/><rect height="8" rx="2" width="32" x="16" y="18"/><rect height="8" rx="2" width="32" x="16" y="29"/></g><path d="m35.1 37.1 4 4 2.121-.707.708-2.121-4-4a5.991 5.991 0 0 1 8.578 5.486 3.932 3.932 0 0 0 1.164 2.842l9.815 9.815a3 3 0 0 1 0 4.242 3 3 0 0 1 -4.243 0l-9.807-9.807a4.064 4.064 0 0 0 -2.9-1.167 5.99 5.99 0 0 1 -5.436-8.583z" fill="#d8d7da"/><path d="m53.657 33.343a3 3 0 0 1 3 3v11a0 0 0 0 1 0 0h-6a0 0 0 0 1 0 0v-11a3 3 0 0 1 3-3z" fill="#8cc63e" transform="matrix(.707 .707 -.707 .707 44.243 -26.125)"/><path d="m43.757 53.071 6.364-6.364-2.828-2.828-6.364 6.364h-1.414l-3.536 4.949 2.829 2.829 4.949-3.536z" fill="#e9e9ea"/><circle cx="32" cy="49" fill="#ffc740" r="3"/><path d="m18 16h28a3 3 0 0 0 3-3v-4a3 3 0 0 0 -3-3h-28a3 3 0 0 0 -3 3v4a3 3 0 0 0 3 3zm-1-7a1 1 0 0 1 1-1h28a1 1 0 0 1 1 1v4a1 1 0 0 1 -1 1h-28a1 1 0 0 1 -1-1z"/><path d="m18 27h28a3 3 0 0 0 3-3v-4a3 3 0 0 0 -3-3h-28a3 3 0 0 0 -3 3v4a3 3 0 0 0 3 3zm-1-7a1 1 0 0 1 1-1h28a1 1 0 0 1 1 1v4a1 1 0 0 1 -1 1h-28a1 1 0 0 1 -1-1z"/><path d="m32 45a4 4 0 1 0 4 4 4 4 0 0 0 -4-4zm0 6a2 2 0 1 1 2-2 2 2 0 0 1 -2 2z"/><path d="m53.08 46.58 6.23-6.24a3.972 3.972 0 0 0 0-5.65 4.07 4.07 0 0 0 -5.65 0l-.66.65v-30.34a3.009 3.009 0 0 0 -3-3h-36a3.009 3.009 0 0 0 -3 3v54a3.009 3.009 0 0 0 3 3h36a3.009 3.009 0 0 0 3-3v-1.25a4 4 0 0 0 5.2-6.05zm1.99-10.48a2.041 2.041 0 0 1 2.83 0 1.992 1.992 0 0 1 0 2.83l-7.07 7.07-2.83-2.83zm-17.85-1.11 1.02 1.01h-20.24a1 1 0 0 1 -1-1v-4a1 1 0 0 1 1-1h28a1 1 0 0 1 1 1v4a1 1 0 0 1 -.59.91 6.643 6.643 0 0 0 -.95-1.18 7 7 0 0 0 -7.96-1.35 1 1 0 0 0 -.28 1.61zm3.02 3.01.55.54-.36 1.06-1.06.36-1.96-1.96zm-4.67.98 2.82 2.83a1.007 1.007 0 0 0 1.03.24l2.12-.71a.989.989 0 0 0 .63-.63l.71-2.12a1.007 1.007 0 0 0 -.24-1.03l-2.83-2.82a4.993 4.993 0 0 1 4.24 1.41 4.919 4.919 0 0 1 1.46 3.6 4.889 4.889 0 0 0 .63 2.45l-.26.26a1.008 1.008 0 0 0 0 1.42l-2.03 2.02a5.056 5.056 0 0 0 -3.33-1.22 4.933 4.933 0 0 1 -4.07-2.07 4.987 4.987 0 0 1 -.88-3.63zm11.72 6.31 1.42 1.42-5.66 5.65a1.007 1.007 0 0 0 -.29.71v.9l-3.84 2.74-1.63-1.63 2.74-3.84h.9a1.007 1.007 0 0 0 .71-.29zm3.71 13.71a1 1 0 0 1 -1 1h-36a1 1 0 0 1 -1-1v-54a1 1 0 0 1 1-1h36a1 1 0 0 1 1 1v32.34l-3.34 3.35a2.906 2.906 0 0 1 -.15-.92 7.277 7.277 0 0 0 -.27-2.04 3.024 3.024 0 0 0 1.76-2.73v-4a3.009 3.009 0 0 0 -3-3h-28a3.009 3.009 0 0 0 -3 3v4a3.009 3.009 0 0 0 3 3h15.74a7.086 7.086 0 0 0 1.09 5.79 6.971 6.971 0 0 0 5.66 2.89 3.088 3.088 0 0 1 1.95.64l-1.93 1.92h-1a1.009 1.009 0 0 0 -.81.42l-3.53 4.95a1 1 0 0 0 .1 1.29l2.83 2.83a1.007 1.007 0 0 0 .71.29.981.981 0 0 0 .58-.19l4.95-3.53a1.009 1.009 0 0 0 .42-.81v-1l1.95-1.96 4.29 4.3zm5.79-3.05a2.064 2.064 0 0 1 -2.84 0l-5.83-5.83 2-2a.982.982 0 0 0 .71.29 1 1 0 0 0 .71-.29l.12-.12 5.12 5.12a2.013 2.013 0 0 1 .01 2.83z"/></svg>