<svg width="67" height="67" viewBox="0 0 67 67" fill="none" xmlns="http://www.w3.org/2000/svg">
<path d="M62.2989 29.6698C62.15 29.9825 62.0049 30.3175 61.8634 30.6748L56.6262 43.3155L54.9401 40.8923L50.5627 34.6167L53.6112 27.2467C53.7452 26.9117 53.8792 26.5878 53.9909 26.2863L59.9874 28.7318L62.2989 29.6698Z" fill="#C81E1E"/>
<path d="M59.9874 28.7318C59.8646 28.9887 59.7529 29.2678 59.6301 29.5582L54.9401 40.8923L50.5627 34.6167L53.6112 27.2467C53.7452 26.9117 53.8792 26.5878 53.9909 26.2863L59.9874 28.7318Z" fill="#F44335"/>
<path d="M45.4707 25.7838C45.3591 28.0172 45.1246 30.2505 44.7896 32.4838L36.9953 33.7457C36.9841 33.6228 36.9841 33.5112 36.9729 33.3883C36.839 30.7263 36.895 28.0582 37.1404 25.4042C37.1404 25.3595 37.1516 25.3148 37.1516 25.2702V25.259L45.4707 25.7838Z" fill="#0377BC"/>
<path d="M43.2374 25.7838C43.1258 28.0172 42.8913 30.2505 42.5563 32.4838L36.9729 33.3883C36.839 30.7263 36.895 28.0582 37.1404 25.4042L43.2374 25.7838Z" fill="#02A9F4"/>
<path d="M24.2875 21.5628C24.0686 21.6184 23.8409 21.6298 23.6175 21.5963C20.6025 21.2502 17.8667 14.1593 17.8667 14.1593L18.0789 8.442C18.5702 8.62066 18.827 7.638 19.1174 6.633C19.3742 5.73966 19.6534 4.81283 20.1447 4.70116C21.1944 4.4555 23.1597 7.8055 23.8409 7.09083L26.5655 12.1158C26.5655 12.1158 27.5482 20.8035 24.2875 21.5628Z" fill="#DFC49C"/>
<path d="M23.6175 21.5963C20.6025 21.2502 17.8667 14.1593 17.8667 14.1593L18.0789 8.442C18.5702 8.62066 18.827 7.638 19.1174 6.633C20.0889 7.49283 21.1832 8.9445 21.6522 8.45316L24.3769 13.4782C24.3769 13.4782 25.0022 18.961 23.6175 21.5963Z" fill="#FFE0B2"/>
<path d="M32.4392 37.2297L30.15 44.6667L29.5247 44.1307L27.5035 42.3775L23.7069 39.0833L18.4139 16.5043L17.8667 14.1593C18.4638 15.0472 19.3 15.748 20.2787 16.1805C21.1332 16.5401 22.0809 16.6145 22.981 16.3927C23.3774 16.3008 23.7602 16.1582 24.12 15.9683C25.479 15.1232 26.3791 13.7052 26.5655 12.1158L32.4392 37.2297Z" fill="#C81E1E"/>
<path d="M29.0893 37.2297L27.5036 42.3775L23.7069 39.0833L18.4139 16.5043C18.8229 16.5258 19.2329 16.4882 19.6311 16.3927C19.8531 16.3422 20.0699 16.2712 20.2788 16.1805C21.1333 16.5401 22.081 16.6145 22.9811 16.3927C23.3774 16.3008 23.7603 16.1582 24.1201 15.9683L29.0893 37.2297Z" fill="#F44335"/>
<path d="M19.0727 39.7198L18.9834 53.6L15.6445 52.3605L10.1729 50.3393L1.26185 28.8435C1.14724 28.5696 1.14641 28.2614 1.25957 27.9869C1.37272 27.7124 1.59053 27.4942 1.86485 27.3807L8.55369 24.6113L11.1555 23.5393C11.726 23.3059 12.3781 23.5747 12.6184 24.1423L13.467 26.2082L13.8914 27.2355L14.3157 28.2628L15.1755 30.3287L15.5999 31.356L16.0354 32.3945L16.884 34.4603L17.3084 35.4877L17.7327 36.515L19.028 39.6193L19.0727 39.7198Z" fill="#FEC108"/>
<path d="M15.7227 40.8365L15.6445 52.3605L10.1729 50.3393L1.26185 28.8435C1.14724 28.5696 1.14641 28.2614 1.25957 27.9869C1.37272 27.7124 1.59053 27.4942 1.86485 27.3807L8.55369 24.6113C8.87025 24.7208 9.1284 24.9547 9.26835 25.259L10.117 27.3248L10.5414 28.3522L10.9657 29.3795L11.8255 31.4453L12.2499 32.4727L12.6854 33.5112L13.534 35.577L13.9584 36.6043L14.3827 37.6317L15.678 40.736L15.7227 40.8365Z" fill="#FFDC00"/>
<path d="M65.8833 58.0667C65.8833 60.1398 65.0598 62.128 63.5939 63.5939C62.1279 65.0598 60.1397 65.8833 58.0666 65.8833H8.9333C4.93932 65.8844 1.58692 62.8744 1.15941 58.9034C0.731888 54.9323 3.36678 51.2777 7.26947 50.4287H7.28063C7.45981 50.3818 7.64301 50.3518 7.8278 50.3393C8.19275 50.2754 8.56283 50.2455 8.9333 50.25C9.6896 50.2479 10.4421 50.357 11.1666 50.5738C11.282 44.8392 15.5292 40.0299 21.2055 39.2062C21.7639 39.1256 22.3274 39.0845 22.8916 39.0833C24.3882 39.081 25.871 39.3692 27.2578 39.932C28.2086 40.3127 29.1058 40.8157 29.9266 41.4283C31.7667 36.5485 36.1714 33.0996 41.3501 32.4838C41.8947 32.4163 42.4429 32.3827 42.9916 32.3833C47.4143 32.3883 51.5736 34.4867 54.2057 38.0409C56.8378 41.5951 57.632 46.1856 56.347 50.4175C56.3358 50.4287 56.3358 50.4287 56.3358 50.4398C56.3581 50.4398 56.3693 50.4287 56.3916 50.4287C56.9424 50.3123 57.5037 50.2524 58.0666 50.25C60.1397 50.25 62.1279 51.0735 63.5939 52.5394C65.0598 54.0054 65.8833 55.9936 65.8833 58.0667Z" fill="#CFD8DC"/>
<path d="M62.5333 58.0667C62.5333 60.1398 61.7098 62.128 60.2439 63.5939C58.7779 65.0598 56.7897 65.8833 54.7166 65.8833H8.9333C4.93932 65.8844 1.58692 62.8744 1.15941 58.9034C0.731888 54.9323 3.36678 51.2777 7.26947 50.4287H7.28063C7.4593 50.4733 7.63797 50.518 7.81663 50.5738C7.81478 50.4955 7.81851 50.4171 7.8278 50.3393C8.19275 50.2754 8.56283 50.2455 8.9333 50.25C9.6896 50.2479 10.4421 50.357 11.1666 50.5738C11.282 44.8392 15.5292 40.0299 21.2055 39.2062C23.2043 39.4853 25.0234 38.994 26.5655 40.1442C26.7553 39.6305 26.9909 40.4122 27.2589 39.932C28.2094 40.3128 29.1061 40.8158 29.9266 41.4283C31.7667 36.5485 36.1714 33.0996 41.3501 32.4838C48.3434 33.3538 53.5947 39.2945 53.6 46.3417C53.6029 47.7309 53.3958 49.1125 52.9858 50.4398C53.5542 50.3142 54.1345 50.2506 54.7166 50.25C55.2644 50.2487 55.8109 50.3049 56.347 50.4175C56.3605 50.4253 56.376 50.4291 56.3916 50.4287C59.979 51.2157 62.5347 54.394 62.5333 58.0667Z" fill="#F5F5F5"/>
<path d="M23.8409 7.09083C23.1367 7.89517 22.2191 8.48365 21.1944 8.78816C20.144 8.968 19.0642 8.84802 18.0789 8.442L18.291 2.546C18.3133 1.88963 18.7697 1.3283 19.4077 1.1725C19.5142 1.15031 19.6227 1.13909 19.7315 1.139C20.2723 1.13751 20.7701 1.43359 21.0269 1.9095L23.8409 7.09083Z" fill="#37474F"/>
<path d="M45.4707 25.7838C44.4456 25.8707 43.4158 25.8856 42.3887 25.8285C40.5127 25.7503 38.793 25.4712 37.1515 25.259C37.319 23.4835 37.5535 21.7303 37.8327 19.9772C37.8438 19.9325 37.8438 19.8878 37.855 19.8432C40.3675 19.9995 42.9023 20.1558 45.4818 20.3122C45.5786 22.1349 45.5749 23.9615 45.4707 25.7838Z" fill="#707070"/>
<path d="M43.2373 25.7838C42.947 25.8062 42.6678 25.8285 42.3886 25.8285C40.5126 25.7503 38.793 25.4712 37.1515 25.259C37.319 23.4835 37.5535 21.7303 37.8327 19.9772C39.6193 20.0888 41.4171 20.2005 43.2485 20.3122C43.3452 22.1349 43.3415 23.9615 43.2373 25.7838Z" fill="#9E9E9E"/>
<path d="M45.4261 20.3122L42.2324 20.1112L37.8551 19.8432C37.8551 19.8432 33.3661 15.7673 37.4419 11.2783C39.9098 8.56483 41.2944 6.4655 41.8193 4.60066C42.0204 3.94653 42.111 3.26344 42.0873 2.5795C42.0755 2.35217 42.2055 2.14125 42.4138 2.04949C42.6221 1.95774 42.8655 2.00423 43.0253 2.16633C45.7723 4.8575 51.9809 12.3727 45.4261 20.3122Z" fill="#624421"/>
<path d="M42.2324 20.1112L37.8551 19.8432C37.8551 19.8432 33.3661 15.7673 37.4419 11.2783C39.9098 8.56483 41.2944 6.4655 41.8193 4.60066C44.5104 8.15166 47.1346 13.9918 42.2324 20.1112Z" fill="#825A2C"/>
<path d="M65.8164 23.5728C65.8527 23.7521 65.8031 23.938 65.6824 24.0753C64.2547 25.7415 63.1115 27.6317 62.2989 29.6698C61.9042 29.964 61.457 30.1801 60.9812 30.3063C60.0479 30.5646 59.0606 30.553 58.1337 30.2728C57.8552 30.2055 57.5826 30.1159 57.3185 30.0048C57.3074 30.0048 57.3074 29.9937 57.2962 29.9937C56.1055 29.5494 55.1066 28.7045 54.471 27.604C54.2337 27.1969 54.071 26.7507 53.9908 26.2863C54.858 24.2526 55.3898 22.0917 55.5653 19.8878C55.5743 19.7035 55.6749 19.5358 55.8333 19.4412L61.1599 16.1135L62.0979 15.5328L63.717 14.5167L64.1525 16.3815L65.8164 23.5728Z" fill="#FEC108"/>
<path d="M62.8907 23.5728C62.9155 23.7515 62.8672 23.9327 62.7567 24.0753C61.3194 25.7366 60.1718 27.6278 59.362 29.6698C58.9934 29.945 58.5769 30.1495 58.1337 30.2728C57.8552 30.2055 57.5826 30.1159 57.3185 30.0048C57.3073 30.0048 57.3073 29.9937 57.2962 29.9937C56.1055 29.5494 55.1066 28.7045 54.471 27.604C54.2337 27.1969 54.071 26.7507 53.9908 26.2863C54.858 24.2526 55.3898 22.0917 55.5653 19.8878C55.5743 19.7035 55.6749 19.5358 55.8333 19.4412L61.1598 16.1135L61.2268 16.3815L62.8907 23.5728Z" fill="#FFDC00"/>
<path d="M58.0667 67H8.93337C5.59857 66.9968 2.54321 65.1364 1.00951 62.1752C-0.524178 59.214 -0.280828 55.645 1.64063 52.9194C3.56208 50.1938 6.8417 48.7654 10.1461 49.2149C10.9819 42.8046 16.4273 37.999 22.8917 37.9667C25.1926 37.962 27.452 38.5793 29.4309 39.7533C32.7281 32.953 40.5511 29.6451 47.7268 32.017C54.9025 34.389 59.2129 41.7076 57.8076 49.1333C60.9992 49.0871 63.973 50.747 65.6089 53.4878C67.2448 56.2287 67.2941 59.634 65.7384 62.4212C64.1827 65.2083 61.2583 66.9537 58.0667 67ZM8.93337 51.3667C5.23306 51.3667 2.23337 54.3664 2.23337 58.0667C2.23337 61.767 5.23306 64.7667 8.93337 64.7667H58.0667C61.767 64.7667 64.7667 61.767 64.7667 58.0667C64.7667 54.3664 61.767 51.3667 58.0667 51.3667C57.5654 51.3673 57.0656 51.4219 56.576 51.5297C56.1878 51.615 55.7835 51.4875 55.5145 51.195C55.2454 50.9025 55.1521 50.489 55.2695 50.1093C55.6454 48.8888 55.8355 47.6187 55.8334 46.3417C55.8334 40.1355 51.395 34.8173 45.2889 33.7071C39.1828 32.5969 33.1565 36.0124 30.9719 41.8214C30.8484 42.1497 30.5778 42.4008 30.2413 42.4996C29.9048 42.5984 29.5414 42.5333 29.26 42.3239C26.0765 39.9331 21.8224 39.526 18.2433 41.2698C14.6641 43.0136 12.3627 46.6145 12.2834 50.5951C12.277 50.9448 12.1071 51.2713 11.8244 51.4772C11.5417 51.6832 11.1788 51.7447 10.844 51.6436C10.2242 51.4578 9.58039 51.3645 8.93337 51.3667Z" fill="black"/>
<path d="M10.1728 51.4571C9.72095 51.457 9.31365 51.1846 9.14103 50.767L0.230033 29.2712C-0.237827 28.1315 0.302468 26.8279 1.43938 26.3533L10.7289 22.5131C11.8634 22.0553 13.1561 22.5848 13.6434 23.7068L20.0587 39.195C20.3022 39.7671 20.0528 40.4296 19.4925 40.6991C19.2332 40.8245 18.9342 40.84 18.6633 40.742C18.3924 40.6441 18.1724 40.441 18.0532 40.1788L18.0074 40.0783L11.5854 24.5667L2.2914 28.4125L11.2046 49.915C11.348 50.2597 11.3096 50.6533 11.1023 50.9638C10.895 51.2743 10.5462 51.4607 10.1728 51.4605V51.4571Z" fill="black"/>
<path d="M8.73684 30.485C8.20391 30.4853 7.74503 30.109 7.64098 29.5864C7.53694 29.0637 7.81673 28.5403 8.30916 28.3365L13.467 26.1992C14.0369 25.963 14.6903 26.2335 14.9265 26.8034C15.1627 27.3732 14.8923 28.0266 14.3224 28.2628L9.16452 30.4035C9.02858 30.4581 8.88333 30.4858 8.73684 30.485Z" fill="black"/>
<path d="M12.5066 33.7602C11.9735 33.761 11.5141 33.3849 11.4098 32.8621C11.3054 32.3393 11.5852 31.8156 12.0778 31.6117L15.1732 30.3298C15.7431 30.0939 16.3963 30.3646 16.6322 30.9345C16.8681 31.5043 16.5973 32.1575 16.0275 32.3934L12.9332 33.6753C12.7978 33.7309 12.653 33.7597 12.5066 33.7602Z" fill="black"/>
<path d="M12.1561 38.7416C11.6225 38.7436 11.1622 38.3678 11.0572 37.8446C10.9523 37.3215 11.2321 36.7972 11.7251 36.5932L16.8841 34.4559C17.4539 34.22 18.1071 34.4907 18.343 35.0605C18.5789 35.6304 18.3082 36.2836 17.7383 36.5195L12.5804 38.6568C12.4458 38.7121 12.3017 38.7409 12.1561 38.7416Z" fill="black"/>
<path d="M23.7057 40.2C23.1878 40.1991 22.7384 39.8422 22.6203 39.3379L16.7802 14.4139C16.6518 13.8186 17.0242 13.2302 17.6171 13.0913C18.2101 12.9525 18.805 13.3143 18.9543 13.9047L24.7945 38.8287C24.8723 39.1609 24.7939 39.5105 24.5818 39.7777C24.3696 40.0449 24.0469 40.2005 23.7057 40.2Z" fill="black"/>
<path d="M32.4381 38.3463C31.9194 38.3459 31.4693 37.9883 31.3516 37.4832L25.4779 12.3704C25.3871 11.9819 25.5106 11.5744 25.8017 11.3015C26.0929 11.0286 26.5075 10.9318 26.8894 11.0474C27.2712 11.1631 27.5624 11.4738 27.6532 11.8623L33.5257 36.9751C33.6652 37.575 33.2924 38.1746 32.6927 38.3151C32.6094 38.3359 32.5239 38.3464 32.4381 38.3463Z" fill="black"/>
<path d="M21.9057 17.6433C19.8711 17.5379 18.0126 16.4566 16.9153 14.74C16.8007 14.552 16.7433 14.3347 16.75 14.1147L17.1699 2.50691C17.2119 1.34486 18.0265 0.354687 19.1586 0.0895214C20.2908 -0.175644 21.4604 0.34982 22.014 1.37238L27.546 11.5854C27.651 11.779 27.6965 11.9993 27.6766 12.2186C27.661 12.3961 27.23 16.5479 23.2345 17.4848C22.7992 17.5887 22.3533 17.6419 21.9057 17.6433ZM18.9968 13.8176C19.8391 15.0037 21.2972 15.5876 22.7253 15.3106C24.1297 14.9259 25.1783 13.754 25.4053 12.3157L20.0509 2.43545C19.9771 2.29806 19.8202 2.2273 19.6683 2.26285C19.5165 2.2984 19.4073 2.43142 19.4021 2.58731L18.9968 13.8176Z" fill="black"/>
<path d="M59.6121 31.6017C58.6721 31.5928 57.7432 31.3969 56.8796 31.0255C54.7816 30.313 53.2552 28.4912 52.921 26.3009C52.8799 25.8961 53.0622 25.501 53.3968 25.2696C53.7314 25.0382 54.1654 25.007 54.5296 25.1883C54.8938 25.3696 55.1306 25.7347 55.1477 26.1412C55.4381 27.4779 56.4252 28.555 57.7316 28.9608C58.9481 29.6001 60.4152 29.5322 61.5674 28.7832C62.0394 28.3944 62.7363 28.4577 63.1307 28.925C63.5272 29.3861 63.4774 30.0808 63.019 30.4805C62.0429 31.2289 60.8419 31.6241 59.6121 31.6017Z" fill="black"/>
<path d="M20.3166 10.0009C19.421 9.98243 18.5352 9.81019 17.698 9.49166C17.1177 9.2829 16.8164 8.64322 17.0252 8.06289C17.234 7.48256 17.8736 7.18134 18.454 7.3901C19.2381 7.72228 20.0991 7.82976 20.9408 7.70053C21.7531 7.44299 22.4775 6.96383 23.0323 6.31698C23.4594 5.87202 24.1663 5.85752 24.6113 6.2846C25.0562 6.71167 25.0707 7.4186 24.6437 7.86356C23.7955 8.82737 22.6868 9.5254 21.4511 9.87356C21.0791 9.95938 20.6984 10.0021 20.3166 10.0009Z" fill="black"/>
<path d="M28.542 41.2608C28.0236 41.2605 27.5736 40.9035 27.4555 40.3988L24.1836 26.4404C24.0553 25.8451 24.4276 25.2567 25.0206 25.1178C25.6135 24.979 26.2084 25.3408 26.3578 25.9312L29.6296 39.8896C29.7074 40.2216 29.6291 40.5709 29.4172 40.8381C29.2053 41.1053 28.883 41.261 28.542 41.2608Z" fill="black"/>
<path d="M23.9984 21.8632C23.48 21.8629 23.03 21.5059 22.9118 21.0012L21.8923 16.6528C21.7517 16.0522 22.1247 15.4512 22.7254 15.3106C23.326 15.17 23.927 15.543 24.0676 16.1436L25.086 20.492C25.1637 20.824 25.0855 21.1733 24.8736 21.4405C24.6617 21.7076 24.3394 21.8633 23.9984 21.8632Z" fill="black"/>
<path d="M50.5616 35.7333C50.1888 35.7333 49.8406 35.5472 49.6334 35.2373C49.4263 34.9274 49.3874 34.5346 49.5298 34.1901L52.5794 26.8201C52.7271 26.4445 53.0659 26.1779 53.4657 26.1226C53.8654 26.0674 54.2639 26.2321 54.5079 26.5535C54.752 26.8749 54.8036 27.303 54.643 27.6732L51.5945 35.0432C51.4217 35.4612 51.0138 35.7337 50.5616 35.7333Z" fill="black"/>
<path d="M56.6262 44.4333C56.2528 44.4335 55.9041 44.2472 55.6967 43.9366C55.4894 43.6261 55.451 43.2325 55.5944 42.8878L60.8327 30.2471C60.9797 29.8701 61.3191 29.6021 61.7199 29.5466C62.1207 29.4911 62.5202 29.6568 62.7641 29.9797C63.008 30.3026 63.0582 30.7321 62.8952 31.1025L57.658 43.7432C57.4854 44.1608 57.0781 44.4332 56.6262 44.4333Z" fill="black"/>
<path d="M61.8634 31.7859C61.717 31.7855 61.5722 31.7567 61.4368 31.701C61.1631 31.5877 60.9457 31.3702 60.8324 31.0965C60.7191 30.8227 60.7192 30.5152 60.8327 30.2416C61.7445 27.8185 63.0375 25.5567 64.6629 23.5416L63.4178 18.167L61.7573 22.1658C61.5211 22.7357 60.8677 23.0062 60.2978 22.7699C59.728 22.5337 59.4575 21.8803 59.6937 21.3105L62.6852 14.089C62.87 13.6387 63.3252 13.36 63.8102 13.4001C64.2953 13.4402 64.6985 13.7898 64.8069 14.2643L66.904 23.3205C67.0316 23.8655 66.8768 24.4382 66.492 24.8447C64.9402 26.7055 63.7229 28.8213 62.8941 31.098C62.7209 31.5144 62.3143 31.7858 61.8634 31.7859Z" fill="black"/>
<path d="M53.6068 28.3633C53.46 28.363 53.3148 28.3342 53.1791 28.2785C52.9054 28.1651 52.6879 27.9476 52.5746 27.6739C52.4613 27.4002 52.4615 27.0926 52.575 26.819C53.5979 24.6247 54.233 22.2699 54.4521 19.8588C54.4666 19.2974 54.7629 18.781 55.2404 18.4853L63.1252 13.5641C63.5372 13.3069 64.0683 13.3456 64.4387 13.6597C64.8092 13.9738 64.9341 14.4914 64.7477 14.9399L61.7573 22.1658C61.5211 22.7357 60.8677 23.0062 60.2978 22.7699C59.728 22.5337 59.4575 21.8803 59.6937 21.3105L61.3508 17.3083L56.6698 20.2295C56.3944 22.8051 55.7087 25.32 54.6386 27.6788C54.4642 28.0942 54.0573 28.3642 53.6068 28.3633Z" fill="black"/>
<path d="M36.9941 34.8623C36.4042 34.8635 35.9152 34.4058 35.8774 33.8171C35.7049 30.9333 35.7594 28.0404 36.0404 25.1652C36.2024 23.402 36.4346 21.6019 36.7495 19.6645C36.8335 19.0933 37.3452 18.6845 37.9209 18.7287C40.4289 18.8851 42.9712 19.0407 45.5477 19.1955C46.1135 19.2304 46.5634 19.6836 46.5941 20.2496C46.7833 24.3969 46.5491 28.5527 45.895 32.6524C45.8401 33.0506 45.5756 33.3885 45.2022 33.5373C44.8289 33.6861 44.4044 33.6228 44.0907 33.3715C43.777 33.1203 43.6226 32.7198 43.6863 32.323C44.2607 28.6997 44.5052 25.0316 44.4166 21.3641L38.8064 21.0213C38.5831 22.5332 38.4022 23.9637 38.2727 25.3695C38.003 28.1294 37.9503 30.9061 38.1152 33.6742C38.1342 33.9698 38.035 34.2608 37.8394 34.4832C37.6438 34.7056 37.3678 34.8412 37.0722 34.8601L36.9941 34.8623Z" fill="black"/>
<path d="M45.4194 21.4266C44.9871 21.4262 44.5939 21.1764 44.4099 20.7852C44.2259 20.3941 44.2842 19.9318 44.5595 19.5986C46.4599 17.5001 47.401 14.7052 47.1569 11.8847C46.6646 8.86695 45.2579 6.07304 43.1269 3.88041C42.7695 6.24216 41.2285 8.75801 38.2683 12.0321C37.336 12.9799 36.843 14.2745 36.9085 15.6023C36.9741 16.9301 37.5923 18.1699 38.6133 19.0213C39.0694 19.4367 39.1024 20.1431 38.687 20.5991C38.2716 21.0552 37.5652 21.0882 37.1091 20.6728C36.2295 19.8212 35.5389 18.7939 35.0824 17.6578C34.0999 15.1935 34.7048 12.3797 36.6133 10.5369C40.8567 5.84686 41.3592 3.5711 40.7841 1.41146C40.6554 0.945717 40.8409 0.450056 41.2438 0.183204C41.6466 -0.0836486 42.1753 -0.0611465 42.554 0.238964C42.8053 0.436614 48.6867 5.13666 49.378 11.6468C49.698 15.0684 48.5756 18.4683 46.2814 21.0268C46.068 21.2818 45.7519 21.4284 45.4194 21.4266Z" fill="black"/>
<path d="M43.1983 17.5317C42.7754 17.5317 42.3887 17.2927 42.1996 16.9144C42.0104 16.5361 42.0512 16.0834 42.305 15.745C43.2835 14.404 43.6837 12.7268 43.4161 11.0885C43.3027 10.6996 43.4088 10.2797 43.6935 9.99143C43.9781 9.70313 44.3965 9.59159 44.7869 9.69997C45.1772 9.80835 45.4783 10.1196 45.5735 10.5134C46.0212 12.8163 45.4824 15.2015 44.0883 17.0884C43.8774 17.3673 43.5481 17.5314 43.1983 17.5317Z" fill="black"/>
<path d="M42.8543 26.8938C41.3985 26.8702 39.9461 26.7467 38.5072 26.5242C38.1286 26.4739 37.7557 26.4237 37.3905 26.379C36.7781 26.305 36.3416 25.7486 36.4156 25.1362C36.4897 24.5238 37.0461 24.0873 37.6585 24.1613C38.0359 24.2071 38.419 24.2585 38.8087 24.311C40.7049 24.6377 42.6346 24.7259 44.5528 24.5734C45.1559 24.5255 45.6874 24.9666 45.7516 25.5681C45.8157 26.1697 45.3892 26.7129 44.7895 26.7933C44.1467 26.8614 43.5007 26.8949 42.8543 26.8938Z" fill="black"/>
<path d="M28.7876 59.1833C28.3401 59.1833 27.9357 58.9161 27.7603 58.5044C27.3989 57.6603 27.2128 56.7516 27.2131 55.8333C27.2113 52.6949 29.3882 49.9758 32.451 49.2909C35.5137 48.606 38.6415 50.1389 39.9766 52.9791C40.2394 53.5373 39.9999 54.2027 39.4417 54.4654C38.8836 54.7281 38.2182 54.4887 37.9555 53.9305C37.2271 52.3574 35.6466 51.3551 33.9131 51.3667C31.4463 51.3667 29.4465 53.3665 29.4465 55.8333C29.4462 56.4507 29.5716 57.0616 29.815 57.6289C29.9311 57.9014 29.9342 58.2088 29.8236 58.4836C29.713 58.7583 29.4978 58.9779 29.2254 59.094C29.0871 59.1533 28.9381 59.1837 28.7876 59.1833Z" fill="black"/>
<path d="M45.7834 56.2018C45.3459 56.2019 44.9487 55.9466 44.7672 55.5486C44.221 54.3626 43.0355 53.6021 41.7299 53.6C40.9761 53.5983 40.2445 53.8553 39.6573 54.3281C39.1751 54.7126 38.4724 54.6333 38.0879 54.1511C37.7033 53.6688 37.7826 52.9661 38.2649 52.5816C39.2466 51.7917 40.4698 51.3628 41.7299 51.3667C43.9104 51.3686 45.8903 52.6398 46.7995 54.6217C46.9572 54.9674 46.9283 55.3696 46.7228 55.6892C46.5173 56.0087 46.1633 56.2019 45.7834 56.2018Z" fill="black"/>
<path d="M16.75 50.25C16.1332 50.25 15.6333 49.7501 15.6333 49.1333C15.6333 45.0262 19.5785 43.6617 19.7471 43.6069C20.333 43.4102 20.9674 43.7257 21.1642 44.3116C21.3609 44.8974 21.0454 45.5319 20.4595 45.7286C18.9842 46.2319 17.9595 47.5773 17.8666 49.1333C17.8666 49.7501 17.3667 50.25 16.75 50.25Z" fill="black"/>
<path d="M35.7334 42.4333C35.6415 42.4337 35.55 42.4224 35.4609 42.3998C34.8627 42.25 34.4992 41.6435 34.6491 41.0453C35.399 37.9606 38.1424 35.775 41.3167 35.7333C41.9334 35.7318 42.4346 36.2305 42.4362 36.8472C42.4377 37.4639 41.939 37.9651 41.3223 37.9667C39.1758 38.0201 37.3304 39.5032 36.8165 41.588C36.6921 42.0849 36.2456 42.4333 35.7334 42.4333Z" fill="black"/>
</svg>
