<svg width="65" height="65" viewBox="0 0 65 65" fill="none" xmlns="http://www.w3.org/2000/svg">
<path d="M40.7622 16.5254H24.2368C23.6288 16.5254 23.1353 16.0319 23.1353 15.4238V9.36428C23.1349 4.20074 27.3357 0 32.4995 0C37.6634 0 41.8638 4.20074 41.8638 9.36428V15.4235C41.8638 16.0319 41.3703 16.5254 40.7622 16.5254ZM25.3384 14.3219H39.6603V9.36428C39.6603 5.41594 36.4479 2.20317 32.4992 2.20317C28.5505 2.20317 25.3384 5.41594 25.3384 9.36428V14.3219Z" fill="black"/>
<path d="M56.7366 20.9321H8.26202L11.5671 15.4238H53.4315L56.7366 20.9321Z" fill="#8C6B3B"/>
<path d="M56.7367 22.034H8.26205C7.86473 22.034 7.49904 21.8203 7.30344 21.4749C7.10785 21.1296 7.11269 20.7061 7.31732 20.365L10.6224 14.8564C10.8212 14.5243 11.1798 14.3216 11.5671 14.3216H53.4316C53.8189 14.3216 54.1775 14.5243 54.3763 14.8564L57.6814 20.365C57.8857 20.7055 57.8908 21.1296 57.6953 21.4749C57.4997 21.82 57.1336 22.034 56.7367 22.034ZM10.2077 19.8305H54.791L52.808 16.5254H12.1913L10.2077 19.8305Z" fill="black"/>
<path d="M32.4739 23.3609L47.4915 26.8727L51.2541 10.7826L36.2366 7.27071L32.4739 23.3609Z" fill="#83D816"/>
<path d="M47.4925 27.9796C47.4092 27.9796 47.3249 27.9702 47.2401 27.9505L32.2216 24.4379C31.937 24.3711 31.6907 24.1949 31.5364 23.946C31.3821 23.6981 31.3331 23.3986 31.3999 23.1143L35.1639 7.02361C35.3021 6.43102 35.8943 6.06178 36.4876 6.20186L51.506 9.71448C51.7907 9.78129 52.0369 9.95752 52.1912 10.2064C52.3455 10.4542 52.3946 10.7538 52.3277 11.0381L48.5637 27.1288C48.4452 27.6371 47.9921 27.9796 47.4925 27.9796ZM33.7961 22.5433L46.6694 25.5543L49.9309 11.6097L37.0576 8.59869L33.7961 22.5433Z" fill="black"/>
<path d="M14.8924 26.3694L33.3193 24.191L30.9854 4.44772L12.5585 6.62607L14.8924 26.3694Z" fill="#2A8EE6"/>
<path d="M14.8906 27.4725C14.3396 27.4725 13.8642 27.0603 13.7977 26.4997L11.4645 6.75734C11.3935 6.15313 11.8253 5.6054 12.4289 5.53375L30.8554 3.35575C31.1468 3.32154 31.437 3.40417 31.6668 3.58491C31.8966 3.76566 32.0447 4.03065 32.079 4.32081L34.4122 24.0638C34.4464 24.3537 34.3644 24.6461 34.183 24.8752C34.0023 25.105 33.7373 25.2532 33.4478 25.2874L15.0213 27.4648C14.9771 27.4696 14.9335 27.4725 14.8906 27.4725ZM13.7816 7.59297L15.8566 25.1473L32.0951 23.2288L30.0201 5.67383L13.7816 7.59297Z" fill="black"/>
<path d="M25.2818 34.6247L43.0316 30.3566L38.5398 11.677L20.7901 15.9451L25.2818 34.6247Z" fill="#ED5481"/>
<path d="M25.28 35.7262C24.7826 35.7262 24.3307 35.3873 24.2097 34.8821L19.7181 16.2036C19.5761 15.612 19.9402 15.0171 20.5318 14.8751L38.2795 10.6072C38.5648 10.5395 38.8634 10.5869 39.1122 10.7383C39.3611 10.8909 39.5396 11.1366 39.608 11.4203L44.0996 30.0995C44.168 30.3838 44.1205 30.6833 43.9679 30.9322C43.8152 31.1817 43.5702 31.3595 43.2859 31.4279L25.5382 35.6955C25.452 35.7168 25.3649 35.7262 25.28 35.7262ZM22.1176 16.7594L26.094 33.2964L41.6995 29.544L37.7231 13.0073L22.1176 16.7594Z" fill="black"/>
<path d="M58.9402 63.8981H6.0589L8.26207 20.9321H56.7367L58.9402 63.8981Z" fill="#FBAD4A"/>
<path d="M58.9401 65H6.05884C5.75706 65 5.46819 64.8761 5.26001 64.6572C5.05247 64.4384 4.94338 64.1434 4.95855 63.8419L7.16204 20.8759C7.19238 20.2904 7.67588 19.8308 8.26266 19.8308H56.7373C57.3241 19.8308 57.8076 20.2901 57.8379 20.8759L60.0414 63.8419C60.0569 64.1437 59.9478 64.4384 59.7399 64.6572C59.5305 64.8761 59.2419 65 58.9401 65ZM7.2182 62.7965H57.7804L55.6899 22.034H9.30873L7.2182 62.7965Z" fill="black"/>
<path d="M40.7622 29.7457C41.9792 29.7457 42.9657 28.7592 42.9657 27.5422C42.9657 26.3253 41.9792 25.3387 40.7622 25.3387C39.5453 25.3387 38.5587 26.3253 38.5587 27.5422C38.5587 28.7592 39.5453 29.7457 40.7622 29.7457Z" fill="#8C6B3B"/>
<path d="M40.7622 30.8473C38.9395 30.8473 37.4571 29.3648 37.4571 27.5422C37.4571 25.7196 38.9395 24.2371 40.7622 24.2371C42.5848 24.2371 44.0673 25.7196 44.0673 27.5422C44.0673 29.3648 42.5848 30.8473 40.7622 30.8473ZM40.7622 26.4406C40.1547 26.4406 39.6606 26.9348 39.6606 27.5422C39.6606 28.1497 40.1547 28.6438 40.7622 28.6438C41.3696 28.6438 41.8638 28.1497 41.8638 27.5422C41.8638 26.9348 41.3696 26.4406 40.7622 26.4406Z" fill="black"/>
<path d="M24.2368 29.7457C25.4538 29.7457 26.4403 28.7592 26.4403 27.5422C26.4403 26.3253 25.4538 25.3387 24.2368 25.3387C23.0199 25.3387 22.0333 26.3253 22.0333 27.5422C22.0333 28.7592 23.0199 29.7457 24.2368 29.7457Z" fill="#8C6B3B"/>
<path d="M24.2368 30.8473C22.4142 30.8473 20.9318 29.3648 20.9318 27.5422C20.9318 25.7196 22.4142 24.2371 24.2368 24.2371C26.0595 24.2371 27.5419 25.7196 27.5419 27.5422C27.5419 29.3648 26.0595 30.8473 24.2368 30.8473ZM24.2368 26.4406C23.6294 26.4406 23.1353 26.9348 23.1353 27.5422C23.1353 28.1497 23.6294 28.6438 24.2368 28.6438C24.8443 28.6438 25.3384 28.1497 25.3384 27.5422C25.3384 26.9348 24.8443 26.4406 24.2368 26.4406Z" fill="black"/>
<path d="M32.4995 44.0676C27.336 44.0676 23.1353 39.8669 23.1353 34.7033V28.6441C23.1353 28.0361 23.6288 27.5425 24.2368 27.5425C24.8449 27.5425 25.3384 28.0361 25.3384 28.6441V34.7033C25.3384 38.6517 28.5509 41.8645 32.4995 41.8645C36.4482 41.8645 39.6606 38.652 39.6606 34.7033V29.0689C39.6055 28.9385 39.5758 28.7945 39.5758 28.6441C39.5758 28.0361 40.0693 27.5425 40.6773 27.5425H40.7622C41.3703 27.5425 41.8638 28.0361 41.8638 28.6441V34.7033C41.8638 39.8669 37.6631 44.0676 32.4995 44.0676Z" fill="black"/>
</svg>
