<svg width="80" height="56" viewBox="0 0 80 56" fill="none" xmlns="http://www.w3.org/2000/svg">
<path d="M10.5312 37.9688H72.0312V45.6562H10.5312V37.9688Z" fill="#D8D7DA"/>
<path d="M70.1094 2.09375H9.89062C8.12159 2.09375 6.6875 3.52784 6.6875 5.29688V34.7656C6.6875 36.5347 8.12159 37.9688 9.89062 37.9688H70.1094C71.8784 37.9688 73.3125 36.5347 73.3125 34.7656V5.29688C73.3125 3.52784 71.8784 2.09375 70.1094 2.09375Z" fill="#78B9EB"/>
<path d="M75.2344 18.75H58.5781C56.8091 18.75 55.375 20.1841 55.375 21.9531V51.4219C55.375 53.1909 56.8091 54.625 58.5781 54.625H75.2344C77.0034 54.625 78.4375 53.1909 78.4375 51.4219V21.9531C78.4375 20.1841 77.0034 18.75 75.2344 18.75Z" fill="#006DF0"/>
<path d="M69.4688 22.5938H64.3438L63.0625 18.75H70.75L69.4688 22.5938Z" fill="#787680"/>
<path d="M16.2969 26.4375H4.76562C2.99659 26.4375 1.5625 27.8716 1.5625 29.6406V51.4219C1.5625 53.1909 2.99659 54.625 4.76562 54.625H16.2969C18.0659 54.625 19.5 53.1909 19.5 51.4219V29.6406C19.5 27.8716 18.0659 26.4375 16.2969 26.4375Z" fill="#006DF0"/>
<path d="M13.0938 30.2812H7.96875L6.6875 26.4375H14.375L13.0938 30.2812Z" fill="#787680"/>
<path d="M47.6875 50.7812H32.3125L33.5938 45.6562H46.4062L47.6875 50.7812Z" fill="#787680"/>
<path d="M28.4688 50.7812H51.5312V54.625H28.4688V50.7812Z" fill="#D8D7DA"/>
<path d="M75.2344 17.4688H74.5938V5.29688C74.5924 4.10795 74.1196 2.96809 73.2789 2.12739C72.4382 1.2867 71.2983 0.813814 70.1094 0.8125H9.89062C8.7017 0.813814 7.56184 1.2867 6.72114 2.12739C5.88045 2.96809 5.40756 4.10795 5.40625 5.29688V25.1562H4.76562C3.5767 25.1576 2.43684 25.6304 1.59614 26.4711C0.755446 27.3118 0.282564 28.4517 0.28125 29.6406V51.4219C0.282564 52.6108 0.755446 53.7507 1.59614 54.5914C2.43684 55.4321 3.5767 55.9049 4.76562 55.9062H16.2969C17.4858 55.9049 18.6257 55.4321 19.4664 54.5914C20.3071 53.7507 20.7799 52.6108 20.7812 51.4219V46.9375H31.9521L31.3115 49.5H28.4688C28.1289 49.5 27.803 49.635 27.5628 49.8753C27.3225 50.1156 27.1875 50.4414 27.1875 50.7812V54.625C27.1875 54.9648 27.3225 55.2907 27.5628 55.531C27.803 55.7713 28.1289 55.9062 28.4688 55.9062H51.5312C51.8711 55.9062 52.1969 55.7713 52.4372 55.531C52.6775 55.2907 52.8125 54.9648 52.8125 54.625V50.7812C52.8125 50.4414 52.6775 50.1156 52.4372 49.8753C52.1969 49.635 51.8711 49.5 51.5312 49.5H48.6885L48.0479 46.9375H54.0938V51.4219C54.0951 52.6108 54.5679 53.7507 55.4086 54.5914C56.2493 55.4321 57.3892 55.9049 58.5781 55.9062H75.2344C76.4233 55.9049 77.5632 55.4321 78.4039 54.5914C79.2446 53.7507 79.7174 52.6108 79.7188 51.4219V21.9531C79.7174 20.7642 79.2446 19.6243 78.4039 18.7836C77.5632 17.9429 76.4233 17.4701 75.2344 17.4688ZM18.2188 51.4219C18.2183 51.9315 18.0157 52.42 17.6554 52.7804C17.295 53.1407 16.8065 53.3433 16.2969 53.3438H4.76562C4.25604 53.3433 3.76745 53.1407 3.40712 52.7804C3.04679 52.42 2.84417 51.9315 2.84375 51.4219V29.6406C2.84417 29.131 3.04679 28.6425 3.40712 28.2821C3.76745 27.9218 4.25604 27.7192 4.76562 27.7188H5.7634L6.75316 30.6864C6.83821 30.9416 7.00138 31.1635 7.21955 31.3207C7.43772 31.4779 7.69983 31.5625 7.96875 31.5625H13.0938C13.3627 31.5625 13.6248 31.4779 13.843 31.3207C14.0611 31.1635 14.2243 30.9416 14.3093 30.6864L15.2991 27.7188H16.2969C16.8065 27.7192 17.295 27.9218 17.6554 28.2821C18.0157 28.6425 18.2183 29.131 18.2188 29.6406V51.4219ZM8.46523 27.7188H12.5973L12.1696 29H8.89285L8.46523 27.7188ZM50.25 52.0625V53.3438H29.75V52.0625H50.25ZM33.9541 49.5L34.5947 46.9375H45.4053L46.0459 49.5H33.9541ZM54.0938 44.375H20.7812V39.25H54.0938V44.375ZM54.0938 21.9531V36.6875H20.7812V29.6406C20.7799 28.4517 20.3071 27.3118 19.4664 26.4711C18.6257 25.6304 17.4858 25.1576 16.2969 25.1562H7.96875V5.29688C7.96917 4.78729 8.17179 4.2987 8.53212 3.93837C8.89245 3.57804 9.38104 3.37542 9.89062 3.375H70.1094C70.619 3.37542 71.1076 3.57804 71.4679 3.93837C71.8282 4.2987 72.0308 4.78729 72.0312 5.29688V17.4688H58.5781C57.3892 17.4701 56.2493 17.9429 55.4086 18.7836C54.5679 19.6243 54.0951 20.7642 54.0938 21.9531ZM68.9723 20.0312L68.5446 21.3125H65.2679L64.8402 20.0312H68.9723ZM77.1562 51.4219C77.1558 51.9315 76.9532 52.42 76.5929 52.7804C76.2326 53.1407 75.744 53.3433 75.2344 53.3438H58.5781C58.0685 53.3433 57.58 53.1407 57.2196 52.7804C56.8593 52.42 56.6567 51.9315 56.6562 51.4219V21.9531C56.6567 21.4435 56.8593 20.955 57.2196 20.5946C57.58 20.2343 58.0685 20.0317 58.5781 20.0312H62.1384L63.1282 22.9989C63.2132 23.2541 63.3764 23.476 63.5945 23.6332C63.8127 23.7904 64.0748 23.875 64.3438 23.875H69.4688C69.7377 23.875 69.9998 23.7904 70.2179 23.6332C70.4361 23.476 70.5993 23.2541 70.6843 22.9989L71.6741 20.0312H75.2344C75.744 20.0317 76.2326 20.2343 76.5929 20.5946C76.9532 20.955 77.1558 21.4435 77.1562 21.9531V51.4219Z" fill="black"/>
<path d="M69.4688 49.5H64.3438C64.0039 49.5 63.678 49.635 63.4378 49.8753C63.1975 50.1155 63.0625 50.4414 63.0625 50.7812C63.0625 51.1211 63.1975 51.447 63.4378 51.6872C63.678 51.9275 64.0039 52.0625 64.3438 52.0625H69.4688C69.8086 52.0625 70.1345 51.9275 70.3747 51.6872C70.615 51.447 70.75 51.1211 70.75 50.7812C70.75 50.4414 70.615 50.1155 70.3747 49.8753C70.1345 49.635 69.8086 49.5 69.4688 49.5Z" fill="black"/>
<path d="M13.0938 49.5H7.96875C7.62894 49.5 7.30305 49.635 7.06277 49.8753C6.82249 50.1155 6.6875 50.4414 6.6875 50.7812C6.6875 51.1211 6.82249 51.447 7.06277 51.6872C7.30305 51.9275 7.62894 52.0625 7.96875 52.0625H13.0938C13.4336 52.0625 13.7594 51.9275 13.9997 51.6872C14.24 51.447 14.375 51.1211 14.375 50.7812C14.375 50.4414 14.24 50.1155 13.9997 49.8753C13.7594 49.635 13.4336 49.5 13.0938 49.5Z" fill="black"/>
<path d="M41.2812 40.5312H38.7188C38.3789 40.5312 38.053 40.6662 37.8128 40.9065C37.5725 41.1468 37.4375 41.4727 37.4375 41.8125C37.4375 42.1523 37.5725 42.4782 37.8128 42.7185C38.053 42.9588 38.3789 43.0938 38.7188 43.0938H41.2812C41.6211 43.0938 41.947 42.9588 42.1872 42.7185C42.4275 42.4782 42.5625 42.1523 42.5625 41.8125C42.5625 41.4727 42.4275 41.1468 42.1872 40.9065C41.947 40.6662 41.6211 40.5312 41.2812 40.5312Z" fill="black"/>
</svg>
